<!DOCTYPE svg PUBLIC "-//W3C//DTD SVG 1.1//EN" "http://www.w3.org/Graphics/SVG/1.1/DTD/svg11.dtd">
<!-- Uploaded to: SVG Repo, www.svgrepo.com, Transformed by: SVG Repo Mixer Tools -->
<svg fill="#8900f2" width="800px" height="800px" viewBox="0 0 32 32" version="1.1" xmlns="http://www.w3.org/2000/svg" stroke="#8900f2" stroke-width="0.00032">
<g id="SVGRepo_bgCarrier" stroke-width="0"/>
<g id="SVGRepo_tracerCarrier" stroke-linecap="round" stroke-linejoin="round"/>
<g id="SVGRepo_iconCarrier"> <path d="M25 8.509h2c0.552 0 1-0.448 1-1v-1c0-0.552-0.448-1-1-1h-2c-0.552 0-1 0.448-1 1v1c0 0.552 0.448 1 1 1zM25 14.509h2c0.552 0 1-0.448 1-1v-1c0-0.552-0.448-1-1-1h-2c-0.552 0-1 0.448-1 1v1c0 0.552 0.448 1 1 1zM25 20.509h2c0.552 0 1-0.448 1-1v-1c0-0.552-0.448-1-1-1h-2c-0.552 0-1 0.448-1 1v1c0 0.552 0.448 1 1 1zM25 26.509h2c0.552 0 1-0.448 1-1v-1c0-0.552-0.448-1-1-1h-2c-0.552 0-1 0.448-1 1v1c0 0.552 0.448 1 1 1zM5 8.509h2c0.552 0 1-0.448 1-1v-1c0-0.552-0.448-1-1-1h-2c-0.552 0-1 0.448-1 1v1c0 0.552 0.448 1 1 1zM5 14.509h2c0.552 0 1-0.448 1-1v-1c0-0.552-0.448-1-1-1h-2c-0.552 0-1 0.448-1 1v1c0 0.552 0.448 1 1 1zM5 20.509h2c0.552 0 1-0.448 1-1v-1c0-0.552-0.448-1-1-1h-2c-0.552 0-1 0.448-1 1v1c0 0.552 0.448 1 1 1zM5 26.509h2c0.552 0 1-0.448 1-1v-1c0-0.552-0.448-1-1-1h-2c-0.552 0-1 0.448-1 1v1c0 0.552 0.448 1 1 1zM30 0.497h-28c-1.099 0-2 0.9-2 2v27.006c0 1.099 0.9 2 2 2h28c1.099 0 2-0.901 2-2v-27.006c0-1.099-0.901-2-2-2zM30 29.503h-28v-27.006h28v27.006z"/> </g>
</svg>